<svg width="257" height="257" viewBox="0 0 257 257" fill="none" xmlns="http://www.w3.org/2000/svg">
<g clip-path="url(#clip0_551_25330)">
<path d="M128.223 128.5V256.151C94.37 256.151 61.9021 242.703 37.9612 218.762C14.0203 194.821 0.572266 162.353 0.572266 128.5C0.572266 94.6474 14.0203 62.1794 37.9612 38.2385C61.9021 14.2976 94.37 0.849609 128.223 0.849609V128.5Z" fill="#7F7B80"/>
<path d="M127.904 0.8494V128.5H128.542V0.8494H127.904ZM38.1843 38.4617C62.0678 14.5846 94.4528 1.16853 128.223 1.16853V0.530273C94.2805 0.530273 61.7359 14.0102 37.7376 38.0149L38.1907 38.4681L38.1843 38.4617ZM0.891183 128.5C0.891183 94.7301 14.3073 62.3451 38.1843 38.4617L37.7312 38.0085C13.7328 62.0132 0.25293 94.5578 0.25293 128.5H0.891183ZM38.1843 218.539C14.3073 194.655 0.891183 162.27 0.891183 128.5H0.25293C0.25293 162.442 13.7328 194.987 37.7376 218.985L38.1907 218.532L38.1843 218.539ZM128.223 255.832C94.4528 255.832 62.0678 242.416 38.1843 218.539L37.7312 218.992C61.7295 242.99 94.2805 256.476 128.216 256.476V255.838L128.223 255.832ZM127.904 128.5V256.151H128.542V128.5H127.904ZM128.223 0.8494H128.542V0.530273H128.223V0.8494ZM128.223 256.151V256.47H128.542V256.151H128.223Z" fill="#202858"/>
<path d="M128.223 128.5V0.849609C162.076 0.849609 194.544 14.2976 218.484 38.2385C242.425 62.1794 255.873 94.6474 255.873 128.5C255.873 162.353 242.425 194.821 218.484 218.762C194.544 242.703 162.076 256.151 128.223 256.151V128.5Z" fill="#3269B2"/>
<path d="M128.542 256.151V128.5H127.903V256.151H128.542ZM218.261 218.539C194.384 242.416 161.992 255.832 128.222 255.832V256.47C162.165 256.47 194.709 242.99 218.708 218.985L218.255 218.532L218.261 218.539ZM255.554 128.5C255.554 162.27 242.138 194.655 218.261 218.539L218.714 218.992C242.712 194.993 256.199 162.442 256.199 128.507H255.56L255.554 128.5ZM218.261 38.4617C242.138 62.3388 255.554 94.7301 255.554 128.5H256.192C256.192 94.5578 242.712 62.0132 218.708 38.0149L218.255 38.4681L218.261 38.4617ZM128.222 1.16853C161.992 1.16853 194.377 14.5846 218.261 38.4617L218.714 38.0085C194.709 14.0102 162.165 0.530273 128.222 0.530273V1.16853ZM128.542 128.5V0.8494H127.903V128.5H128.542ZM128.222 256.151H127.903V256.47H128.222V256.151ZM128.222 0.8494V0.530273H127.903V0.8494H128.222Z" fill="#202858"/>
</g>
<defs>
<clipPath id="clip0_551_25330">
<rect width="255.94" height="255.94" fill="white" transform="translate(0.25293 0.530273)"/>
</clipPath>
</defs>
</svg>
