<svg width="218" height="218" viewBox="0 0 218 218" fill="none" xmlns="http://www.w3.org/2000/svg">
<g clip-path="url(#clip0_550_25092)">
<path d="M108.931 108.772V0.673828C111.174 0.673828 113.411 0.744092 115.649 0.884619L108.931 108.772Z" fill="#E77550"/>
<path d="M108.931 108.771L115.649 0.883789C142.814 2.57552 168.336 14.4501 187.129 34.1401C205.922 53.8302 216.591 79.8818 217.013 107.09L108.926 108.771H108.931Z" fill="#3368B2"/>
<path d="M108.931 108.771L217.018 107.09C217.191 118.321 215.618 129.509 212.348 140.249L108.936 108.771H108.931Z" fill="#ADFBE8"/>
<path d="M108.931 108.771L212.343 140.25C205.76 161.869 192.572 180.884 174.622 194.617C156.678 208.351 134.875 216.113 112.288 216.815L108.926 108.771H108.931Z" fill="#94B3EF"/>
<path d="M108.931 108.772L85.5814 214.319C59.573 208.562 36.6076 193.412 21.0847 171.766C5.56188 150.119 -1.42125 123.506 1.47037 97.0269C4.36199 70.5483 16.9338 46.0696 36.7643 28.2874C56.5949 10.5053 82.2952 0.673828 108.931 0.673828V108.772Z" fill="#7F7A7F"/>
<path d="M108.931 108.772L112.293 216.816C103.321 217.097 94.3434 216.254 85.582 214.313L108.931 108.767V108.772Z" fill="#006E6E"/>
<path d="M115.379 0.868141L108.661 108.755L109.202 108.788L115.92 0.900571L115.379 0.868141ZM108.931 0.94381C111.169 0.94381 113.401 1.01407 115.633 1.1546L115.666 0.614111C113.423 0.473584 111.174 0.40332 108.931 0.40332V0.94381ZM109.202 108.771V0.673565H108.661V108.771H109.202ZM115.65 0.884356L115.92 0.900571L115.936 0.630326L115.666 0.614111L115.65 0.884356ZM108.931 0.673565V0.40332L108.661 0.40332V0.673565H108.931ZM108.931 108.771H108.661L109.202 108.788L108.931 108.771Z" fill="#0A215B"/>
<path d="M217.013 106.82L108.926 108.501L108.936 109.041L217.024 107.361L217.013 106.82ZM186.934 34.3242C205.679 53.9656 216.321 79.9469 216.748 107.096L217.288 107.085C216.861 79.8064 206.165 53.6899 187.329 33.9513L186.94 34.3242H186.934ZM115.633 1.15436C142.728 2.84069 168.19 14.6882 186.934 34.3296L187.324 33.9567C168.488 14.2126 142.901 2.31101 115.665 0.613871L115.633 1.15436ZM109.201 108.793L115.92 0.90033L115.379 0.867901L108.661 108.755L109.201 108.787V108.793ZM217.018 107.096V107.366H217.294V107.096H217.018ZM115.649 0.884116L115.665 0.613871L115.395 0.597656L115.379 0.867901L115.649 0.884116ZM108.931 108.771L108.661 108.755L108.645 109.047H108.936V108.771H108.931Z" fill="#0A215B"/>
<path d="M212.424 139.99L109.012 108.512L108.856 109.031L212.267 140.509L212.424 139.99ZM216.748 107.091C216.921 118.29 215.348 129.451 212.089 140.169L212.608 140.325C215.889 129.553 217.467 118.338 217.294 107.08L216.753 107.091H216.748ZM108.937 109.036L217.024 107.355L217.013 106.815L108.926 108.496L108.937 109.036ZM212.343 140.244L212.262 140.504L212.521 140.585L212.603 140.325L212.343 140.244ZM217.013 107.085H217.283V106.81H217.013V107.085ZM108.926 108.766V108.496L108.845 109.026L108.926 108.766Z" fill="#0A215B"/>
<path d="M112.564 216.81L109.202 108.766L108.661 108.783L112.023 216.827L112.564 216.81ZM174.46 194.402C156.559 208.103 134.815 215.848 112.282 216.545L112.299 217.086C134.945 216.383 156.797 208.6 174.785 194.829L174.455 194.402H174.46ZM212.084 140.174C205.517 161.74 192.361 180.706 174.46 194.402L174.79 194.829C192.783 181.062 206.003 161.999 212.603 140.326L212.084 140.169V140.174ZM108.85 109.031L212.262 140.509L212.419 139.991L109.007 108.512L108.85 109.031ZM112.293 216.816L112.023 216.827L112.034 217.097L112.304 217.086L112.293 216.816ZM212.343 140.25L212.603 140.331L212.684 140.072L212.424 139.991L212.343 140.25ZM108.931 108.772L109.013 108.512L108.65 108.404L108.661 108.783L108.931 108.772Z" fill="#0A215B"/>
<path d="M108.66 0.673111V108.771H109.201V0.673111H108.66ZM36.9481 28.4921C56.73 10.7532 82.36 0.943356 108.93 0.943356V0.402866C82.2303 0.402866 56.4652 10.2614 36.586 28.0867L36.9481 28.4867V28.4921ZM1.7406 97.0532C4.62681 70.6395 17.1662 46.2256 36.9481 28.4867L36.586 28.0867C16.7068 45.9121 4.10794 70.4503 1.20552 96.9992L1.7406 97.0586V97.0532ZM21.3009 171.603C5.8213 150.016 -1.14561 123.467 1.7406 97.0532L1.20552 96.9938C-1.69691 123.537 5.30783 150.221 20.8685 171.916L21.3063 171.603H21.3009ZM85.6354 214.048C59.6919 208.308 36.7859 193.196 21.3009 171.603L20.8631 171.916C36.4238 193.617 59.4487 208.805 85.5219 214.577L85.6408 214.048H85.6354ZM108.666 108.706L85.3165 214.253L85.8462 214.372L109.195 108.825L108.666 108.706ZM108.93 0.667706H109.201V0.397461H108.93V0.667706ZM85.5813 214.312L85.5219 214.577L85.7867 214.637L85.8462 214.372L85.5813 214.312ZM108.93 108.766L109.195 108.825V108.798L109.201 108.771H108.93V108.766Z" fill="#0A215B"/>
<path d="M85.8464 214.378L109.196 108.831L108.666 108.712L85.3167 214.259L85.8464 214.378ZM112.287 216.55C103.337 216.831 94.3862 215.994 85.641 214.059L85.5221 214.588C94.3105 216.534 103.304 217.372 112.303 217.096L112.287 216.556V216.55ZM108.666 108.782L112.028 216.826L112.568 216.81L109.206 108.766L108.666 108.782ZM85.587 214.318L85.3221 214.259L85.2627 214.524L85.5275 214.583L85.587 214.318ZM112.298 216.821L112.309 217.091L112.579 217.08L112.568 216.81L112.298 216.821ZM108.936 108.777L109.206 108.766L108.671 108.717L108.936 108.777Z" fill="#0A215B"/>
</g>
<defs>
<clipPath id="clip0_550_25092">
<rect width="216.736" height="216.736" fill="white" transform="translate(0.5625 0.40332)"/>
</clipPath>
</defs>
</svg>
