<svg width="402" height="401" viewBox="0 0 402 401" fill="none" xmlns="http://www.w3.org/2000/svg">
<g clip-path="url(#clip0_550_25049)">
<path d="M201 200.5V0.5C205.15 0.5 209.29 0.63 213.43 0.89L201 200.5Z" fill="#E77550"/>
<path d="M201 200.5L213.43 0.889648C263.69 4.01965 310.91 25.9896 345.68 62.4196C380.45 98.8496 400.19 147.05 400.97 197.39L200.99 200.5H201Z" fill="#3368B2"/>
<path d="M201 200.5L400.98 197.39C401.3 218.17 398.39 238.87 392.34 258.74L201.01 200.5H201Z" fill="#ADFBE8"/>
<path d="M201 200.5L392.33 258.74C380.15 298.74 355.75 333.92 322.54 359.33C289.34 384.74 249 399.1 207.21 400.4L200.99 200.5H201Z" fill="#94B3EF"/>
<path d="M201 200.5L157.8 395.78C109.68 385.13 67.1899 357.1 38.4699 317.05C9.74992 277 -3.17008 227.76 2.17992 178.77C7.52992 129.78 30.7899 84.49 67.4799 51.59C104.17 18.69 151.72 0.5 201 0.5V200.5Z" fill="#7F7A7F"/>
<path d="M201 200.5L207.22 400.4C190.62 400.92 174.01 399.36 157.8 395.77L201 200.49V200.5Z" fill="#006E6E"/>
<path d="M212.93 0.86L200.5 200.47L201.5 200.53L213.93 0.92L212.93 0.86ZM201 1C205.14 1 209.27 1.13 213.4 1.39L213.46 0.39C209.31 0.13 205.15 0 201 0V1ZM201.5 200.5V0.5H200.5V200.5H201.5ZM213.43 0.89L213.93 0.92L213.96 0.42L213.46 0.39L213.43 0.89ZM201 0.5V0L200.5 0V0.5H201ZM201 200.5H200.5L201.5 200.53L201 200.5Z" fill="#0A215B"/>
<path d="M400.97 196.89L200.99 200L201.01 201L400.99 197.89L400.97 196.89ZM345.32 62.7603C380 99.1003 399.69 147.17 400.48 197.4L401.48 197.38C400.69 146.91 380.9 98.5903 346.05 62.0704L345.33 62.7603H345.32ZM213.4 1.39035C263.53 4.51035 310.64 26.4304 345.32 62.7704L346.04 62.0804C311.19 25.5504 263.85 3.53035 213.46 0.390352L213.4 1.39035ZM201.5 200.54L213.93 0.920352L212.93 0.860352L200.5 200.47L201.5 200.53V200.54ZM400.98 197.4V197.9H401.49V197.4H400.98ZM213.43 0.890352L213.46 0.390352L212.96 0.360352L212.93 0.860352L213.43 0.890352ZM201 200.5L200.5 200.47L200.47 201.01H201.01V200.5H201Z" fill="#0A215B"/>
<path d="M392.48 258.26L201.15 200.02L200.86 200.98L392.19 259.22L392.48 258.26ZM400.48 197.39C400.8 218.11 397.89 238.76 391.86 258.59L392.82 258.88C398.89 238.95 401.81 218.2 401.49 197.37L400.49 197.39H400.48ZM201.01 200.99L400.99 197.88L400.97 196.88L200.99 199.99L201.01 200.99ZM392.33 258.73L392.18 259.21L392.66 259.36L392.81 258.88L392.33 258.73ZM400.97 197.38H401.47V196.87H400.97V197.38ZM200.99 200.49V199.99L200.84 200.97L200.99 200.49Z" fill="#0A215B"/>
<path d="M207.72 400.39L201.5 200.49L200.5 200.52L206.72 400.42L207.72 400.39ZM322.24 358.93C289.12 384.28 248.89 398.61 207.2 399.9L207.23 400.9C249.13 399.6 289.56 385.2 322.84 359.72L322.23 358.93H322.24ZM391.85 258.6C379.7 298.5 355.36 333.59 322.24 358.93L322.85 359.72C356.14 334.25 380.6 298.98 392.81 258.88L391.85 258.59V258.6ZM200.85 200.98L392.18 259.22L392.47 258.26L201.14 200.02L200.85 200.98ZM207.22 400.4L206.72 400.42L206.74 400.92L207.24 400.9L207.22 400.4ZM392.33 258.74L392.81 258.89L392.96 258.41L392.48 258.26L392.33 258.74ZM201 200.5L201.15 200.02L200.48 199.82L200.5 200.52L201 200.5Z" fill="#0A215B"/>
<path d="M200.5 0.500234V200.5H201.5V0.500234H200.5ZM67.8198 51.9702C104.42 19.1502 151.84 1.00023 201 1.00023V0.000234375C151.6 0.000234375 103.93 18.2402 67.1498 51.2202L67.8198 51.9602V51.9702ZM2.67984 178.82C8.01984 129.95 31.2198 84.7802 67.8198 51.9602L67.1498 51.2202C30.3698 84.2002 7.05984 129.6 1.68984 178.72L2.67984 178.83V178.82ZM38.8698 316.75C10.2298 276.81 -2.66016 227.69 2.67984 178.82L1.68984 178.71C-3.68016 227.82 9.27983 277.19 38.0698 317.33L38.8798 316.75H38.8698ZM157.9 395.28C109.9 384.66 67.5198 356.7 38.8698 316.75L38.0598 317.33C66.8498 357.48 109.45 385.58 157.69 396.26L157.91 395.28H157.9ZM200.51 200.38L157.31 395.66L158.29 395.88L201.49 200.6L200.51 200.38ZM201 0.490234H201.5V-0.00976562H201V0.490234ZM157.8 395.77L157.69 396.26L158.18 396.37L158.29 395.88L157.8 395.77ZM201 200.49L201.49 200.6V200.55L201.5 200.5H201V200.49Z" fill="#0A215B"/>
<path d="M158.29 395.89L201.49 200.61L200.51 200.39L157.31 395.67L158.29 395.89ZM207.21 399.91C190.65 400.43 174.09 398.88 157.91 395.3L157.69 396.28C173.95 399.88 190.59 401.43 207.24 400.92L207.21 399.92V399.91ZM200.51 200.52L206.73 400.42L207.73 400.39L201.51 200.49L200.51 200.52ZM157.81 395.78L157.32 395.67L157.21 396.16L157.7 396.27L157.81 395.78ZM207.23 400.41L207.25 400.91L207.75 400.89L207.73 400.39L207.23 400.41ZM201.01 200.51L201.51 200.49L200.52 200.4L201.01 200.51Z" fill="#0A215B"/>
</g>
<defs>
<clipPath id="clip0_550_25049">
<rect width="401" height="401" fill="white" transform="translate(0.5)"/>
</clipPath>
</defs>
</svg>
