<svg width="227" height="226" viewBox="0 0 227 226" fill="none" xmlns="http://www.w3.org/2000/svg">
<g clip-path="url(#clip0_677_16900)">
<path d="M113.117 112.996V225.71C83.2254 225.71 54.5566 213.835 33.4172 192.696C12.2777 171.556 0.40332 142.888 0.40332 112.996C0.40332 83.1043 12.2777 54.4355 33.4172 33.2961C54.5566 12.1566 83.2254 0.282227 113.117 0.282227V112.996Z" fill="#7F7B80"/>
<path d="M112.835 0.281784V112.996H113.398V0.281784H112.835ZM33.614 33.4929C54.7027 12.4098 83.2982 0.563569 113.117 0.563569V0C83.146 0 54.4097 11.9026 33.2195 33.0984L33.6196 33.4985L33.614 33.4929ZM0.684662 112.996C0.684662 83.1771 12.5309 54.5816 33.614 33.4929L33.2138 33.0927C12.0237 54.2886 0.121094 83.0249 0.121094 112.996H0.684662ZM33.614 192.498C12.5309 171.409 0.684662 142.814 0.684662 112.996H0.121094C0.121094 142.966 12.0237 171.702 33.2195 192.893L33.6196 192.492L33.614 192.498ZM113.117 225.427C83.2982 225.427 54.7027 213.581 33.614 192.498L33.2138 192.898C54.404 214.088 83.146 225.997 113.111 225.997V225.433L113.117 225.427ZM112.835 112.996V225.709H113.398V112.996H112.835ZM113.117 0.281784H113.398V0H113.117V0.281784ZM113.117 225.709V225.991H113.398V225.709H113.117Z" fill="#202858"/>
<path d="M113.117 112.996V0.282227C143.009 0.282227 171.678 12.1566 192.817 33.2961C213.957 54.4355 225.831 83.1043 225.831 112.996C225.831 142.888 213.957 171.556 192.817 192.696C171.678 213.835 143.009 225.71 113.117 225.71V112.996Z" fill="#3269B2"/>
<path d="M113.399 225.709V112.996H112.835V225.709H113.399ZM192.619 192.498C171.536 213.581 142.935 225.427 113.117 225.427V225.991C143.087 225.991 171.824 214.088 193.014 192.893L192.614 192.492L192.619 192.498ZM225.549 112.996C225.549 142.814 213.702 171.409 192.619 192.498L193.02 192.898C214.21 171.708 226.118 142.966 226.118 113.001H225.554L225.549 112.996ZM192.619 33.4929C213.702 54.576 225.549 83.1771 225.549 112.996H226.112C226.112 83.0249 214.21 54.2886 193.014 33.0984L192.614 33.4985L192.619 33.4929ZM113.117 0.563569C142.935 0.563569 171.531 12.4098 192.619 33.4929L193.02 33.0927C171.824 11.9026 143.087 0 113.117 0V0.563569ZM113.399 112.996V0.281784H112.835V112.996H113.399ZM113.117 225.709H112.835V225.991H113.117V225.709ZM113.117 0.281784V0H112.835V0.281784H113.117Z" fill="#202858"/>
</g>
<defs>
<clipPath id="clip0_677_16900">
<rect width="225.991" height="225.991" fill="white" transform="translate(0.121094)"/>
</clipPath>
</defs>
</svg>
