<svg width="402" height="401" viewBox="0 0 402 401" fill="none" xmlns="http://www.w3.org/2000/svg">
<g clip-path="url(#clip0_551_25308)">
<path d="M201 200.5V400.5C147.96 400.5 97.09 379.43 59.58 341.92C22.07 304.41 1 253.54 1 200.5C1 147.46 22.07 96.59 59.58 59.08C97.09 21.57 147.96 0.5 201 0.5V200.5Z" fill="#7F7B80"/>
<path d="M200.5 0.5V200.5H201.5V0.5H200.5ZM59.93 59.43C97.35 22.02 148.09 1 201 1V0C147.82 0 96.83 21.12 59.23 58.73L59.94 59.44L59.93 59.43ZM1.5 200.5C1.5 147.59 22.52 96.85 59.93 59.43L59.22 58.72C21.62 96.33 0.5 147.32 0.5 200.5H1.5ZM59.93 341.57C22.52 304.15 1.5 253.41 1.5 200.5H0.5C0.5 253.68 21.62 304.67 59.23 342.27L59.94 341.56L59.93 341.57ZM201 400C148.09 400 97.35 378.98 59.93 341.57L59.22 342.28C96.82 379.88 147.82 401.01 200.99 401.01V400.01L201 400ZM200.5 200.5V400.5H201.5V200.5H200.5ZM201 0.5H201.5V0H201V0.5ZM201 400.5V401H201.5V400.5H201Z" fill="#202858"/>
<path d="M201 200.5V0.5C254.04 0.5 304.91 21.57 342.42 59.08C379.93 96.59 401 147.46 401 200.5C401 253.54 379.93 304.41 342.42 341.92C304.91 379.43 254.04 400.5 201 400.5V200.5Z" fill="#3269B2"/>
<path d="M201.5 400.5V200.5H200.5V400.5H201.5ZM342.07 341.57C304.66 378.98 253.91 400 201 400V401C254.18 401 305.17 379.88 342.77 342.27L342.06 341.56L342.07 341.57ZM400.5 200.5C400.5 253.41 379.48 304.15 342.07 341.57L342.78 342.28C380.38 304.68 401.51 253.68 401.51 200.51H400.51L400.5 200.5ZM342.07 59.43C379.48 96.84 400.5 147.59 400.5 200.5H401.5C401.5 147.32 380.38 96.33 342.77 58.73L342.06 59.44L342.07 59.43ZM201 1C253.91 1 304.65 22.02 342.07 59.43L342.78 58.72C305.17 21.12 254.18 0 201 0V1ZM201.5 200.5V0.5H200.5V200.5H201.5ZM201 400.5H200.5V401H201V400.5ZM201 0.5V0H200.5V0.5H201Z" fill="#202858"/>
</g>
<defs>
<clipPath id="clip0_551_25308">
<rect width="401" height="401" fill="white" transform="translate(0.5)"/>
</clipPath>
</defs>
</svg>
