<svg width="218" height="217" viewBox="0 0 218 217" fill="none" xmlns="http://www.w3.org/2000/svg">
<g clip-path="url(#clip0_550_24982)">
<path d="M108.931 108.581V0.483398C111.174 0.483398 113.411 0.553662 115.649 0.694189L108.931 108.581Z" fill="#E77550"/>
<path d="M108.931 108.581L115.649 0.693359C142.814 2.38509 168.336 14.2596 187.129 33.9497C205.922 53.6397 216.591 79.6913 217.013 106.9L108.926 108.581H108.931Z" fill="#3368B2"/>
<path d="M108.931 108.58L217.018 106.899C217.191 118.131 215.618 129.319 212.348 140.058L108.936 108.58H108.931Z" fill="#ADFBE8"/>
<path d="M108.931 108.581L212.343 140.059C205.76 161.679 192.572 180.693 174.622 194.427C156.678 208.161 134.875 215.922 112.288 216.625L108.926 108.581H108.931Z" fill="#94B3EF"/>
<path d="M108.931 108.581L85.5814 214.128C59.573 208.372 36.6076 193.222 21.0847 171.575C5.56188 149.929 -1.42125 123.315 1.47037 96.8365C4.36199 70.3579 16.9338 45.8791 36.7643 28.097C56.5949 10.3149 82.2952 0.483398 108.931 0.483398V108.581Z" fill="#7F7A7F"/>
<path d="M108.931 108.582L112.293 216.625C103.321 216.907 94.3434 216.063 85.582 214.123L108.931 108.576V108.582Z" fill="#006E6E"/>
<path d="M115.379 0.677712L108.661 108.565L109.202 108.597L115.92 0.710141L115.379 0.677712ZM108.931 0.75338C111.169 0.75338 113.401 0.823644 115.633 0.964171L115.666 0.423682C113.423 0.283154 111.174 0.212891 108.931 0.212891V0.75338ZM109.202 108.581V0.483135H108.661V108.581H109.202ZM115.65 0.693926L115.92 0.710141L115.936 0.439896L115.666 0.423682L115.65 0.693926ZM108.931 0.483135V0.212891L108.661 0.212891V0.483135H108.931ZM108.931 108.581H108.661L109.202 108.597L108.931 108.581Z" fill="#0A215B"/>
<path d="M217.013 106.63L108.926 108.311L108.936 108.851L217.024 107.17L217.013 106.63ZM186.934 34.1338C205.679 53.7752 216.321 79.7565 216.748 106.905L217.288 106.894C216.861 79.616 206.165 53.4995 187.329 33.7608L186.94 34.1338H186.934ZM115.633 0.963931C142.728 2.65026 168.19 14.4978 186.934 34.1392L187.324 33.7662C168.488 14.0222 142.901 2.12058 115.665 0.423441L115.633 0.963931ZM109.201 108.602L115.92 0.709901L115.379 0.677471L108.661 108.565L109.201 108.597V108.602ZM217.018 106.905V107.176H217.294V106.905H217.018ZM115.649 0.693686L115.665 0.423441L115.395 0.407227L115.379 0.677471L115.649 0.693686ZM108.931 108.581L108.661 108.565L108.645 108.856H108.936V108.581H108.931Z" fill="#0A215B"/>
<path d="M212.424 139.8L109.012 108.322L108.856 108.841L212.267 140.319L212.424 139.8ZM216.748 106.9C216.921 118.099 215.348 129.26 212.089 139.978L212.608 140.135C215.889 129.363 217.467 118.148 217.294 106.889L216.753 106.9H216.748ZM108.937 108.846L217.024 107.165L217.013 106.625L108.926 108.305L108.937 108.846ZM212.343 140.054L212.262 140.313L212.521 140.394L212.603 140.135L212.343 140.054ZM217.013 106.895H217.283V106.619H217.013V106.895ZM108.926 108.576V108.305L108.845 108.835L108.926 108.576Z" fill="#0A215B"/>
<path d="M112.564 216.62L109.202 108.576L108.661 108.592L112.023 216.636L112.564 216.62ZM174.46 194.211C156.559 207.913 134.815 215.658 112.282 216.355L112.299 216.896C134.945 216.193 156.797 208.41 174.785 194.638L174.455 194.211H174.46ZM212.084 139.984C205.517 161.549 192.361 180.515 174.46 194.211L174.79 194.638C192.783 180.872 206.003 161.809 212.603 140.135L212.084 139.978V139.984ZM108.85 108.841L212.262 140.319L212.419 139.8L109.007 108.322L108.85 108.841ZM112.293 216.625L112.023 216.636L112.034 216.906L112.304 216.896L112.293 216.625ZM212.343 140.06L212.603 140.141L212.684 139.881L212.424 139.8L212.343 140.06ZM108.931 108.581L109.013 108.322L108.65 108.214L108.661 108.592L108.931 108.581Z" fill="#0A215B"/>
<path d="M108.66 0.482681V108.581H109.201V0.482681H108.66ZM36.9481 28.3017C56.73 10.5628 82.36 0.752926 108.93 0.752926V0.212436C82.2303 0.212436 56.4652 10.071 36.586 27.8963L36.9481 28.2963V28.3017ZM1.7406 96.8628C4.62681 70.4491 17.1662 46.0351 36.9481 28.2963L36.586 27.8963C16.7068 45.7217 4.10794 70.2599 1.20552 96.8087L1.7406 96.8682V96.8628ZM21.3009 171.413C5.8213 149.825 -1.14561 123.277 1.7406 96.8628L1.20552 96.8033C-1.69691 123.347 5.30783 150.031 20.8685 171.726L21.3063 171.413H21.3009ZM85.6354 213.857C59.6919 208.117 36.7859 193.005 21.3009 171.413L20.8631 171.726C36.4238 193.427 59.4487 208.614 85.5219 214.387L85.6408 213.857H85.6354ZM108.666 108.516L85.3165 214.063L85.8462 214.182L109.195 108.635L108.666 108.516ZM108.93 0.477276H109.201V0.207031H108.93V0.477276ZM85.5813 214.122L85.5219 214.387L85.7867 214.446L85.8462 214.182L85.5813 214.122ZM108.93 108.575L109.195 108.635V108.608L109.201 108.581H108.93V108.575Z" fill="#0A215B"/>
<path d="M85.8464 214.187L109.196 108.64L108.666 108.521L85.3167 214.068L85.8464 214.187ZM112.287 216.36C103.337 216.641 94.3862 215.803 85.641 213.868L85.5221 214.398C94.3105 216.344 103.304 217.182 112.303 216.906L112.287 216.365V216.36ZM108.666 108.592L112.028 216.636L112.568 216.619L109.206 108.576L108.666 108.592ZM85.587 214.128L85.3221 214.068L85.2627 214.333L85.5275 214.393L85.587 214.128ZM112.298 216.63L112.309 216.9L112.579 216.89L112.568 216.619L112.298 216.63ZM108.936 108.586L109.206 108.576L108.671 108.527L108.936 108.586Z" fill="#0A215B"/>
</g>
<defs>
<clipPath id="clip0_550_24982">
<rect width="216.736" height="216.736" fill="white" transform="translate(0.5625 0.212891)"/>
</clipPath>
</defs>
</svg>
